<?xml version="1.0" encoding="UTF-8"?>
<svg id="stoppuhr_MERGED" xmlns="http://www.w3.org/2000/svg" version="1.1" viewBox="0 0 75 75">
  <!-- Generator: Adobe Illustrator 30.2.1, SVG Export Plug-In . SVG Version: 2.1.1 Build 1)  -->
  <defs>
    <style>
      .st0 {
        fill: #fff;
      }

      .st1 {
        fill: #7700f4;
      }
    </style>
  </defs>
  <circle class="st1" cx="37.6" cy="37.5" r="34"/>
  <g>
    <path class="st0" d="M40,19.9v-2.1h3.7c1.1,0,2-.9,2-2s-.9-2-2-2h-11.5c-1.1,0-2,.9-2,2s.9,2,2,2h3.7v2.2c-6.8.7-12.7,5-15.4,11.4-.4,1,0,2.2,1.1,2.6,1,.4,2.2,0,2.6-1.1,2.3-5.5,7.7-9.1,13.7-9.1s14.9,6.7,14.9,14.9-6.7,14.9-14.9,14.9-6.7-1.1-9.3-3.3c-.9-.7-2.1-.6-2.8.3-.7.9-.6,2.1.3,2.8,3.3,2.7,7.5,4.2,11.9,4.2,10.4,0,18.9-8.5,18.9-18.9s-7.4-17.7-16.9-18.7Z"/>
    <path class="st0" d="M38.3,28.3c-1.1,0-2,.9-2,2v9.1c0,1.1.9,2,2,2h6c1.1,0,2-.9,2-2s-.9-2-2-2h-4v-7.1c0-1.1-.9-2-2-2Z"/>
    <path class="st0" d="M27.3,38.8c0-1.1-.9-2-2-2h-10.3c-1.1,0-2,.9-2,2s.9,2,2,2h10.3c1.1,0,2-.9,2-2Z"/>
    <path class="st0" d="M29.5,45.2c0-1.1-.9-2-2-2h-10.3c-1.1,0-2,.9-2,2s.9,2,2,2h10.3c1.1,0,2-.9,2-2Z"/>
  </g>
</svg>