<?xml version="1.0" encoding="UTF-8"?>
<svg id="timewise_logo_MERGED" xmlns="http://www.w3.org/2000/svg" version="1.1" viewBox="0 0 289.1 75">
  <!-- Generator: Adobe Illustrator 30.2.1, SVG Export Plug-In . SVG Version: 2.1.1 Build 1)  -->
  <defs>
    <style>
      .st0 {
        fill: #fff;
      }

      .st1 {
        fill: #7700f4;
      }
    </style>
  </defs>
  <g id="icon">
    <circle id="_x37_700f4" class="st1" cx="38.3" cy="37.2" r="26.9"/>
    <g>
      <path class="st0" d="M40.2,22.9v-1.7h3c.9,0,1.6-.7,1.6-1.6s-.7-1.6-1.6-1.6h-9.1c-.9,0-1.6.7-1.6,1.6s.7,1.6,1.6,1.6h3v1.7c-5.4.6-10,4-12.2,9-.3.8,0,1.7.8,2.1.8.3,1.7,0,2.1-.8,1.8-4.4,6.1-7.2,10.8-7.2s11.8,5.3,11.8,11.8-5.3,11.8-11.8,11.8-5.3-.9-7.4-2.6c-.7-.6-1.7-.4-2.2.2-.6.7-.4,1.7.2,2.2,2.6,2.1,6,3.3,9.4,3.3,8.2,0,14.9-6.7,14.9-14.9s-5.9-14.1-13.4-14.8Z"/>
      <path class="st0" d="M38.9,29.5c-.9,0-1.6.7-1.6,1.6v7.2c0,.9.7,1.6,1.6,1.6h4.7c.9,0,1.6-.7,1.6-1.6s-.7-1.6-1.6-1.6h-3.1v-5.6c0-.9-.7-1.6-1.6-1.6Z"/>
      <path class="st0" d="M30.1,37.9c0-.9-.7-1.6-1.6-1.6h-8.2c-.9,0-1.6.7-1.6,1.6s.7,1.6,1.6,1.6h8.2c.9,0,1.6-.7,1.6-1.6Z"/>
      <path class="st0" d="M31.9,43c0-.9-.7-1.6-1.6-1.6h-8.2c-.9,0-1.6.7-1.6,1.6s.7,1.6,1.6,1.6h8.2c.9,0,1.6-.7,1.6-1.6Z"/>
    </g>
  </g>
  <g>
    <path class="st1" d="M100,22h-22.1c-1.1,0-1.9.3-2.5.8-.6.6-.9,1.4-.9,2.5s.3,1.9.9,2.5c.6.6,1.4.9,2.5.9h7v20.9c0,1.3.4,2.3,1.1,3s1.7,1.1,3,1.1,2.4-.4,3.1-1.1c.7-.7,1-1.7,1-3v-20.9h7c1.1,0,1.9-.3,2.5-.9.6-.6.9-1.4.9-2.5s-.3-1.9-.9-2.5c-.6-.6-1.4-.8-2.5-.8Z"/>
    <path class="st1" d="M110.6,20.4c-1.4,0-2.5.3-3.2,1-.8.7-1.1,1.6-1.1,2.8s.4,2.2,1.1,2.8c.8.7,1.8,1,3.2,1s2.5-.3,3.3-1c.7-.6,1.1-1.6,1.1-2.8s-.4-2.1-1.1-2.8c-.7-.6-1.8-1-3.3-1Z"/>
    <path class="st1" d="M110.6,31.1c-1.2,0-2.2.4-2.9,1.1-.7.7-1,1.8-1,3.2v14c0,1.4.3,2.5,1,3.2.7.7,1.6,1.1,2.9,1.1s2.3-.4,3-1.1c.7-.7,1-1.8,1-3.2v-14c0-1.4-.3-2.5-1-3.2-.7-.7-1.7-1.1-3-1.1Z"/>
    <path class="st1" d="M151.3,32c-1.1-.7-2.5-1-4.2-1s-3.2.4-4.5,1.2c-1.1.7-2,1.6-2.7,2.8-.5-1.2-1.2-2.2-2.2-2.9-1.1-.8-2.5-1.2-4.1-1.2s-3.1.4-4.4,1.2c-1,.6-1.7,1.4-2.3,2.3,0-1-.4-1.8-.9-2.4-.7-.7-1.6-1-2.8-1s-2.2.3-2.9,1c-.7.7-1,1.7-1,2.9v14.7c0,1.3.3,2.3,1,3,.7.7,1.6,1,2.9,1,2.7,0,4-1.3,4-4v-8.3c0-1.4.3-2.5.9-3.3.6-.8,1.4-1.2,2.5-1.2s1.5.3,1.9.8c.4.6.6,1.5.6,2.8v9.1c0,1.3.3,2.3,1,3,.7.7,1.7,1,2.9,1s2.2-.3,2.9-1c.7-.7,1-1.7,1-3v-8.3c0-1.4.3-2.5.9-3.3.6-.8,1.4-1.2,2.5-1.2s1.5.3,1.9.8c.4.6.6,1.5.6,2.8v9.1c0,1.3.3,2.3,1,3,.7.7,1.6,1,2.9,1s2.3-.3,3-1c.7-.7,1-1.7,1-3v-9.3c0-2.1-.3-3.9-.8-5.3-.5-1.4-1.4-2.4-2.5-3.1Z"/>
    <path class="st1" d="M177.5,34c-.9-1-2.1-1.7-3.4-2.3-1.3-.5-2.8-.8-4.4-.8s-4.2.5-5.9,1.4c-1.7,1-3.1,2.3-4.1,4-1,1.7-1.5,3.7-1.5,5.9s.5,4.4,1.6,6.1,2.5,3,4.5,4c1.9.9,4.2,1.4,6.9,1.4s2.4-.1,3.5-.4,2.3-.6,3.3-1.1c.7-.3,1.2-.7,1.5-1.3.3-.5.4-1.1.4-1.7,0-.6-.2-1.1-.5-1.6-.3-.5-.7-.8-1.3-1-.6-.2-1.2-.1-2,.2-.8.3-1.6.5-2.4.7-.8.2-1.6.2-2.2.2-2,0-3.4-.5-4.3-1.4-.6-.6-1-1.5-1.2-2.6h12.6c.7,0,1.2-.1,1.6-.4s.5-.7.5-1.3c0-1.7-.2-3.3-.7-4.7-.5-1.4-1.2-2.6-2.2-3.6ZM167.6,36.7c.7-.4,1.5-.6,2.4-.6s1.6.2,2.2.5c.6.4,1,.9,1.3,1.6.2.6.4,1.3.4,2.1h-8.2c0-.6.2-1.2.4-1.6.4-.8.9-1.5,1.5-1.9Z"/>
    <path class="st1" d="M217.7,31.8c-.5-.5-1.3-.7-2.3-.7s-1.4.2-2.1.6c-.7.4-1.2,1.2-1.6,2.3l-3.9,10.4-4.1-11c-.3-.8-.7-1.3-1.2-1.7-.5-.4-1.2-.6-2-.6s-1.5.2-2,.6c-.5.4-.9,1-1.2,1.8l-4,10.8-3.8-9.9c-.5-1.2-1-2.1-1.6-2.5-.6-.4-1.3-.6-2.3-.6s-1.9.2-2.5.7c-.6.5-1,1.1-1.1,1.8-.1.8,0,1.6.4,2.5l6,14.6c.4,1,1,1.8,1.8,2.3.7.5,1.6.7,2.6.7s1.9-.3,2.6-.8c.7-.5,1.3-1.3,1.7-2.4l3-8,3.2,8.1c.4,1,1,1.8,1.8,2.3.7.5,1.6.8,2.6.8s1.9-.3,2.6-.8c.7-.5,1.3-1.3,1.7-2.3l6-14.5c.4-.9.5-1.7.5-2.5,0-.8-.4-1.4-.9-1.9Z"/>
    <path class="st1" d="M225.8,20.4c-1.4,0-2.5.3-3.2,1-.8.7-1.1,1.6-1.1,2.8s.4,2.2,1.1,2.8c.8.7,1.8,1,3.2,1s2.5-.3,3.3-1c.7-.6,1.1-1.6,1.1-2.8s-.4-2.1-1.1-2.8c-.7-.6-1.8-1-3.3-1Z"/>
    <path class="st1" d="M225.8,31.1c-1.2,0-2.2.4-2.9,1.1-.7.7-1,1.8-1,3.2v14c0,1.4.3,2.5,1,3.2.7.7,1.6,1.1,2.9,1.1s2.3-.4,3-1.1c.7-.7,1-1.8,1-3.2v-14c0-1.4-.3-2.5-1-3.2-.7-.7-1.7-1.1-3-1.1Z"/>
    <path class="st1" d="M247.2,40.3l-4.9-.8c-.6,0-1-.3-1.2-.5-.3-.3-.4-.6-.4-1s.3-.9.8-1.2c.5-.3,1.4-.5,2.6-.5s1.4,0,2.1.3c.8.2,1.6.5,2.6.8.7.2,1.3.3,1.9.1.5-.2,1-.5,1.3-.9.3-.5.5-1,.6-1.5,0-.5,0-1.1-.3-1.6-.3-.5-.7-.9-1.4-1.2-1-.5-2.1-.9-3.2-1-1.1-.2-2.3-.3-3.6-.3-2,0-3.7.3-5.3.9-1.5.6-2.7,1.5-3.6,2.6-.9,1.1-1.3,2.4-1.3,4s.5,3,1.5,4c1,1,2.4,1.7,4.3,2l4.9.8c.6,0,1,.3,1.3.5.3.2.5.6.5,1s-.2.9-.7,1.2c-.5.3-1.3.5-2.4.5s-1.9,0-2.9-.3-2.1-.5-3.3-1c-.7-.2-1.2-.3-1.8,0-.5.2-.9.5-1.2,1-.3.5-.5,1-.5,1.5,0,.6.1,1.1.4,1.6s.8.9,1.6,1.2c1.1.5,2.3.8,3.7,1s2.7.3,4,.3c3,0,5.5-.7,7.3-2,1.8-1.3,2.8-3.2,2.8-5.6s-.5-3-1.5-4c-1-1-2.5-1.6-4.4-1.9Z"/>
    <path class="st1" d="M277.1,43.6c.3-.3.5-.7.5-1.3,0-1.7-.2-3.3-.7-4.7-.5-1.4-1.2-2.6-2.2-3.6-.9-1-2.1-1.7-3.4-2.3-1.3-.5-2.8-.8-4.4-.8s-4.2.5-5.9,1.4c-1.7,1-3.1,2.3-4.1,4-1,1.7-1.5,3.7-1.5,5.9s.5,4.4,1.6,6.1,2.5,3,4.5,4c1.9.9,4.2,1.4,6.9,1.4s2.4-.1,3.5-.4,2.3-.6,3.3-1.1c.7-.3,1.2-.7,1.5-1.3.3-.5.4-1.1.4-1.7,0-.6-.2-1.1-.5-1.6-.3-.5-.7-.8-1.3-1-.6-.2-1.2-.1-2,.2-.8.3-1.6.5-2.4.7-.8.2-1.6.2-2.2.2-2,0-3.4-.5-4.3-1.4-.6-.6-1-1.5-1.2-2.6h12.6c.7,0,1.2-.1,1.6-.4ZM264.8,36.7c.7-.4,1.5-.6,2.4-.6s1.6.2,2.2.5c.6.4,1,.9,1.3,1.6.2.6.4,1.3.4,2.1h-8.2c0-.6.2-1.2.4-1.6.4-.8.9-1.5,1.5-1.9Z"/>
  </g>
</svg>