<?xml version="1.0" encoding="UTF-8"?>
<svg id="timewise_logo__x26__slogan_MERGED" xmlns="http://www.w3.org/2000/svg" version="1.1" viewBox="0 0 289.1 80.4">
  <!-- Generator: Adobe Illustrator 30.2.1, SVG Export Plug-In . SVG Version: 2.1.1 Build 1)  -->
  <defs>
    <style>
      .st0 {
        fill: #fff;
      }

      .st1 {
        fill: #7700f4;
      }
    </style>
  </defs>
  <g id="icon">
    <circle id="_x37_700f4" class="st1" cx="38.3" cy="41" r="26.9"/>
    <g>
      <path class="st0" d="M40.2,26.7v-1.7h3c.9,0,1.6-.7,1.6-1.6s-.7-1.6-1.6-1.6h-9.1c-.9,0-1.6.7-1.6,1.6s.7,1.6,1.6,1.6h3v1.7c-5.4.6-10,4-12.2,9-.3.8,0,1.7.8,2.1.8.3,1.7,0,2.1-.8,1.8-4.4,6.1-7.2,10.8-7.2s11.8,5.3,11.8,11.8-5.3,11.8-11.8,11.8-5.3-.9-7.4-2.6c-.7-.6-1.7-.4-2.2.2-.6.7-.4,1.7.2,2.2,2.6,2.1,6,3.3,9.4,3.3,8.2,0,14.9-6.7,14.9-14.9s-5.9-14.1-13.4-14.8Z"/>
      <path class="st0" d="M38.9,33.3c-.9,0-1.6.7-1.6,1.6v7.2c0,.9.7,1.6,1.6,1.6h4.7c.9,0,1.6-.7,1.6-1.6s-.7-1.6-1.6-1.6h-3.1v-5.6c0-.9-.7-1.6-1.6-1.6Z"/>
      <path class="st0" d="M30.1,41.6c0-.9-.7-1.6-1.6-1.6h-8.2c-.9,0-1.6.7-1.6,1.6s.7,1.6,1.6,1.6h8.2c.9,0,1.6-.7,1.6-1.6Z"/>
      <path class="st0" d="M31.9,46.7c0-.9-.7-1.6-1.6-1.6h-8.2c-.9,0-1.6.7-1.6,1.6s.7,1.6,1.6,1.6h8.2c.9,0,1.6-.7,1.6-1.6Z"/>
    </g>
  </g>
  <g>
    <path class="st1" d="M100,16.2h-22.1c-1.1,0-1.9.3-2.5.8-.6.6-.9,1.4-.9,2.5s.3,1.9.9,2.5c.6.6,1.4.9,2.5.9h7v20.9c0,1.3.4,2.3,1.1,3s1.7,1.1,3,1.1,2.4-.4,3.1-1.1c.7-.7,1-1.7,1-3v-20.9h7c1.1,0,1.9-.3,2.5-.9.6-.6.9-1.4.9-2.5s-.3-1.9-.9-2.5c-.6-.6-1.4-.8-2.5-.8Z"/>
    <path class="st1" d="M110.6,14.6c-1.4,0-2.5.3-3.2,1-.8.7-1.1,1.6-1.1,2.8s.4,2.2,1.1,2.8c.8.7,1.8,1,3.2,1s2.5-.3,3.3-1c.7-.6,1.1-1.6,1.1-2.8s-.4-2.1-1.1-2.8c-.7-.6-1.8-1-3.3-1Z"/>
    <path class="st1" d="M110.6,25.3c-1.2,0-2.2.4-2.9,1.1-.7.7-1,1.8-1,3.2v14c0,1.4.3,2.5,1,3.2.7.7,1.6,1.1,2.9,1.1s2.3-.4,3-1.1c.7-.7,1-1.8,1-3.2v-14c0-1.4-.3-2.5-1-3.2-.7-.7-1.7-1.1-3-1.1Z"/>
    <path class="st1" d="M151.3,26.2c-1.1-.7-2.5-1-4.2-1s-3.2.4-4.5,1.2c-1.1.7-2,1.6-2.7,2.8-.5-1.2-1.2-2.2-2.2-2.9-1.1-.8-2.5-1.2-4.1-1.2s-3.1.4-4.4,1.2c-1,.6-1.7,1.4-2.3,2.3,0-1-.4-1.8-.9-2.4-.7-.7-1.6-1-2.8-1s-2.2.3-2.9,1c-.7.7-1,1.7-1,2.9v14.7c0,1.3.3,2.3,1,3,.7.7,1.6,1,2.9,1,2.7,0,4-1.3,4-4v-8.3c0-1.4.3-2.5.9-3.3.6-.8,1.4-1.2,2.5-1.2s1.5.3,1.9.8c.4.6.6,1.5.6,2.8v9.1c0,1.3.3,2.3,1,3,.7.7,1.7,1,2.9,1s2.2-.3,2.9-1c.7-.7,1-1.7,1-3v-8.3c0-1.4.3-2.5.9-3.3.6-.8,1.4-1.2,2.5-1.2s1.5.3,1.9.8c.4.6.6,1.5.6,2.8v9.1c0,1.3.3,2.3,1,3,.7.7,1.6,1,2.9,1s2.3-.3,3-1c.7-.7,1-1.7,1-3v-9.3c0-2.1-.3-3.9-.8-5.3-.5-1.4-1.4-2.4-2.5-3.1Z"/>
    <path class="st1" d="M177.5,28.2c-.9-1-2.1-1.7-3.4-2.3-1.3-.5-2.8-.8-4.4-.8s-4.2.5-5.9,1.4c-1.7,1-3.1,2.3-4.1,4-1,1.7-1.5,3.7-1.5,5.9s.5,4.4,1.6,6.1,2.5,3,4.5,4c1.9.9,4.2,1.4,6.9,1.4s2.4-.1,3.5-.4,2.3-.6,3.3-1.1c.7-.3,1.2-.7,1.5-1.3.3-.5.4-1.1.4-1.7,0-.6-.2-1.1-.5-1.6-.3-.5-.7-.8-1.3-1-.6-.2-1.2-.1-2,.2-.8.3-1.6.5-2.4.7-.8.2-1.6.2-2.2.2-2,0-3.4-.5-4.3-1.4-.6-.6-1-1.5-1.2-2.6h12.6c.7,0,1.2-.1,1.6-.4s.5-.7.5-1.3c0-1.7-.2-3.3-.7-4.7-.5-1.4-1.2-2.6-2.2-3.6ZM167.6,30.9c.7-.4,1.5-.6,2.4-.6s1.6.2,2.2.5c.6.4,1,.9,1.3,1.6.2.6.4,1.3.4,2.1h-8.2c0-.6.2-1.2.4-1.6.4-.8.9-1.5,1.5-1.9Z"/>
    <path class="st1" d="M217.7,26c-.5-.5-1.3-.7-2.3-.7s-1.4.2-2.1.6c-.7.4-1.2,1.2-1.6,2.3l-3.9,10.4-4.1-11c-.3-.8-.7-1.3-1.2-1.7-.5-.4-1.2-.6-2-.6s-1.5.2-2,.6c-.5.4-.9,1-1.2,1.8l-4,10.8-3.8-9.9c-.5-1.2-1-2.1-1.6-2.5-.6-.4-1.3-.6-2.3-.6s-1.9.2-2.5.7c-.6.5-1,1.1-1.1,1.8-.1.8,0,1.6.4,2.5l6,14.6c.4,1,1,1.8,1.8,2.3.7.5,1.6.7,2.6.7s1.9-.3,2.6-.8c.7-.5,1.3-1.3,1.7-2.4l3-8,3.2,8.1c.4,1,1,1.8,1.8,2.3.7.5,1.6.8,2.6.8s1.9-.3,2.6-.8c.7-.5,1.3-1.3,1.7-2.3l6-14.5c.4-.9.5-1.7.5-2.5,0-.8-.4-1.4-.9-1.9Z"/>
    <path class="st1" d="M225.8,25.3c-1.2,0-2.2.4-2.9,1.1-.7.7-1,1.8-1,3.2v14c0,1.4.3,2.5,1,3.2.7.7,1.6,1.1,2.9,1.1s2.3-.4,3-1.1c.7-.7,1-1.8,1-3.2v-14c0-1.4-.3-2.5-1-3.2-.7-.7-1.7-1.1-3-1.1Z"/>
    <path class="st1" d="M225.8,14.6c-1.4,0-2.5.3-3.2,1-.8.7-1.1,1.6-1.1,2.8s.4,2.2,1.1,2.8c.8.7,1.8,1,3.2,1s2.5-.3,3.3-1c.7-.6,1.1-1.6,1.1-2.8s-.4-2.1-1.1-2.8c-.7-.6-1.8-1-3.3-1Z"/>
    <path class="st1" d="M247.2,34.5l-4.9-.8c-.6,0-1-.3-1.2-.5-.3-.3-.4-.6-.4-1s.3-.9.8-1.2c.5-.3,1.4-.5,2.6-.5s1.4,0,2.1.3c.8.2,1.6.5,2.6.8.7.2,1.3.3,1.9.1.5-.2,1-.5,1.3-.9.3-.5.5-1,.6-1.5,0-.5,0-1.1-.3-1.6-.3-.5-.7-.9-1.4-1.2-1-.5-2.1-.9-3.2-1-1.1-.2-2.3-.3-3.6-.3-2,0-3.7.3-5.3.9-1.5.6-2.7,1.5-3.6,2.6-.9,1.1-1.3,2.4-1.3,4s.5,3,1.5,4c1,1,2.4,1.7,4.3,2l4.9.8c.6,0,1,.3,1.3.5.3.2.5.6.5,1s-.2.9-.7,1.2c-.5.3-1.3.5-2.4.5s-1.9,0-2.9-.3-2.1-.5-3.3-1c-.7-.2-1.2-.3-1.8,0-.5.2-.9.5-1.2,1-.3.5-.5,1-.5,1.5,0,.6.1,1.1.4,1.6s.8.9,1.6,1.2c1.1.5,2.3.8,3.7,1s2.7.3,4,.3c3,0,5.5-.7,7.3-2,1.8-1.3,2.8-3.2,2.8-5.6s-.5-3-1.5-4c-1-1-2.5-1.6-4.4-1.9Z"/>
    <path class="st1" d="M277.1,37.8c.3-.3.5-.7.5-1.3,0-1.7-.2-3.3-.7-4.7-.5-1.4-1.2-2.6-2.2-3.6-.9-1-2.1-1.7-3.4-2.3-1.3-.5-2.8-.8-4.4-.8s-4.2.5-5.9,1.4c-1.7,1-3.1,2.3-4.1,4-1,1.7-1.5,3.7-1.5,5.9s.5,4.4,1.6,6.1,2.5,3,4.5,4c1.9.9,4.2,1.4,6.9,1.4s2.4-.1,3.5-.4,2.3-.6,3.3-1.1c.7-.3,1.2-.7,1.5-1.3.3-.5.4-1.1.4-1.7,0-.6-.2-1.1-.5-1.6-.3-.5-.7-.8-1.3-1-.6-.2-1.2-.1-2,.2-.8.3-1.6.5-2.4.7-.8.2-1.6.2-2.2.2-2,0-3.4-.5-4.3-1.4-.6-.6-1-1.5-1.2-2.6h12.6c.7,0,1.2-.1,1.6-.4ZM264.8,30.9c.7-.4,1.5-.6,2.4-.6s1.6.2,2.2.5c.6.4,1,.9,1.3,1.6.2.6.4,1.3.4,2.1h-8.2c0-.6.2-1.2.4-1.6.4-.8.9-1.5,1.5-1.9Z"/>
  </g>
  <g>
    <path class="st1" d="M82.5,58c0-.3,0-.5-.2-.7-.2-.2-.4-.2-.7-.2h-6.1c-.3,0-.5,0-.7.2-.2.2-.2.4-.2.7s0,.5.2.7.4.2.7.2h1.9v5.8c0,.4,0,.6.3.8.2.2.5.3.8.3s.7,0,.8-.3c.2-.2.3-.5.3-.8v-5.8h1.9c.3,0,.5,0,.7-.2.2-.2.2-.4.2-.7Z"/>
    <path class="st1" d="M85.8,59.5c-.5,0-.9.2-1.3.5-.2.2-.4.5-.5.8h0c0-.5,0-.8-.3-.9-.2-.2-.4-.3-.8-.3s-.6,0-.8.3c-.2.2-.3.5-.3.8v4.1c0,.4,0,.6.3.8.2.2.5.3.8.3s.6,0,.8-.3c.2-.2.3-.5.3-.8v-2c0-.4,0-.7.3-.9s.5-.3.9-.4h.3c.3,0,.6-.2.7-.3.1-.2.2-.4.2-.7,0-.3,0-.6-.2-.7-.1-.1-.3-.2-.5-.2Z"/>
    <path class="st1" d="M91.3,59.8c-.4-.2-1-.3-1.7-.3s-.6,0-.9,0c-.3,0-.7.1-1.1.3-.2,0-.4.2-.5.3s-.2.3-.2.5c0,.2,0,.3.1.5,0,.1.2.2.4.3.2,0,.3,0,.6,0,.3-.1.6-.2.8-.2.2,0,.5,0,.7,0,.4,0,.6,0,.8.2.2.1.2.3.2.6v.2h-.5c-.8,0-1.5,0-2,.2-.5.1-.9.3-1.1.5-.2.3-.3.6-.3,1s.1.7.3,1,.5.5.8.7c.4.2.8.3,1.2.3s.6,0,.8-.2.4-.3.6-.4c.1-.1.2-.3.2-.5,0,.3,0,.6.3.7.2.2.4.3.8.3s.6,0,.7-.3c.2-.2.3-.5.3-.8v-2.5c0-.6-.1-1.1-.3-1.5-.2-.4-.5-.7-1-.9ZM90.4,63.9c0,.2-.2.3-.4.4-.2,0-.3.1-.5.1s-.4,0-.6-.2c-.1-.1-.2-.3-.2-.5s0-.3.1-.4c0,0,.3-.2.5-.2.2,0,.5,0,.8,0h.5v.2c0,.2,0,.4-.1.6Z"/>
    <path class="st1" d="M95.8,61.6c.1-.1.3-.2.4-.3.2,0,.4,0,.6,0s.3,0,.4,0c.1,0,.3,0,.4.1.2,0,.4.1.5,0s.3-.1.4-.3c0-.1.1-.3.1-.5,0-.2,0-.3,0-.5,0-.2-.2-.3-.4-.3-.3-.1-.5-.2-.8-.3s-.5,0-.7,0c-.5,0-1,0-1.4.2-.4.1-.8.3-1.1.6-.3.3-.5.6-.7,1-.2.4-.2.8-.2,1.3s.1,1.2.4,1.7c.3.5.7.8,1.2,1.1.5.3,1.1.4,1.8.4s.5,0,.7,0,.5-.1.8-.3c.2,0,.3-.2.4-.3,0-.2.1-.3.1-.5,0-.2,0-.3-.1-.5,0-.1-.2-.2-.4-.3-.1,0-.3,0-.5,0-.1,0-.3.1-.4.1-.1,0-.3,0-.4,0-.4,0-.8-.1-1-.4-.2-.3-.4-.6-.4-1.1s0-.5,0-.6c0-.2.1-.3.3-.5Z"/>
    <path class="st1" d="M103.5,62.6l1.3-1.5c.2-.2.3-.4.3-.7,0-.2,0-.4-.3-.6-.2-.1-.4-.2-.7-.2s-.5,0-.7.2c-.2.1-.4.3-.6.5l-1.5,1.8h0v-4.1c0-.4,0-.6-.3-.8s-.5-.3-.8-.3-.6,0-.8.3-.3.5-.3.8v6.7c0,.4,0,.6.3.8.2.2.5.3.8.3.7,0,1.1-.4,1.1-1.1v-1.5h0l1.5,1.9c.2.3.4.4.6.6s.5.2.8.2.5,0,.7-.2.3-.3.3-.5c0-.2,0-.4-.2-.7l-1.5-1.9Z"/>
    <path class="st1" d="M114.1,59.6c-.3,0-.5,0-.7.2-.2.1-.3.3-.4.7l-1.1,2.7-1-2.7c-.1-.3-.3-.6-.4-.7-.2-.1-.4-.2-.6-.2s-.6,0-.7.2-.3.3-.3.5,0,.4.1.7l1.9,4.3-.6,1.4c-.1.2-.1.5-.1.7,0,.2.1.4.3.5.2.1.4.2.6.2s.5,0,.7-.2c.2-.1.3-.3.5-.7l2.8-6.3c.1-.2.1-.5.1-.7,0-.2-.1-.4-.3-.5s-.3-.2-.6-.2Z"/>
    <path class="st1" d="M120.1,59.9c-.5-.3-1.1-.4-1.8-.4s-1,0-1.4.2c-.4.1-.8.4-1.1.6s-.5.6-.7,1c-.2.4-.2.8-.2,1.3s.1,1.2.4,1.7.7.8,1.2,1.1c.5.3,1.1.4,1.8.4s1,0,1.4-.2c.4-.1.8-.4,1.1-.6.3-.3.5-.6.7-1,.2-.4.2-.8.2-1.3s-.1-1.2-.4-1.7c-.3-.5-.7-.8-1.2-1.1ZM119.4,63.6c0,.2-.2.4-.4.5s-.4.2-.6.2c-.3,0-.6-.1-.8-.4-.2-.2-.3-.6-.3-1.2s0-.7.1-.9c0-.2.2-.4.4-.5s.4-.2.6-.2c.3,0,.6.1.8.4.2.2.3.6.3,1.2s0,.7-.1.9Z"/>
    <path class="st1" d="M127.4,59.6c-.4,0-.6,0-.8.3-.2.2-.3.5-.3.8v2.4c0,.4,0,.6-.3.8-.2.2-.4.3-.7.3s-.5,0-.6-.2c-.1-.1-.2-.4-.2-.7v-2.6c0-.4,0-.6-.3-.8-.2-.2-.5-.3-.8-.3s-.6,0-.8.3c-.2.2-.3.5-.3.8v2.6c0,.6,0,1.1.3,1.5.2.4.4.7.8.9.3.2.8.3,1.3.3s.8-.1,1.1-.3c.2-.2.4-.4.6-.6,0,.3.1.5.3.7.2.2.5.3.8.3.7,0,1.1-.4,1.1-1.1v-4.1c0-.4,0-.6-.3-.8-.2-.2-.5-.3-.8-.3Z"/>
    <path class="st1" d="M133.4,59.5c-.5,0-.9.2-1.3.5-.2.2-.4.5-.5.8h0c0-.5,0-.8-.3-.9-.2-.2-.4-.3-.8-.3s-.6,0-.8.3c-.2.2-.3.5-.3.8v4.1c0,.4,0,.6.3.8.2.2.5.3.8.3s.6,0,.8-.3c.2-.2.3-.5.3-.8v-2c0-.4,0-.7.3-.9s.5-.3.9-.4h.3c.3,0,.6-.2.7-.3.1-.2.2-.4.2-.7,0-.3,0-.6-.2-.7-.1-.1-.3-.2-.5-.2Z"/>
    <path class="st1" d="M141.9,64c0,0-.2,0-.3,0s-.2,0-.3,0c-.3,0-.5,0-.7-.2s-.2-.4-.2-.7v-1.9h1c.3,0,.5,0,.6-.2.1-.1.2-.3.2-.6s0-.5-.2-.6c-.1-.1-.4-.2-.6-.2h-1v-.8c0-.4,0-.6-.3-.8s-.5-.3-.8-.3-.6,0-.8.3c-.2.2-.3.5-.3.8v.8h-.4c-.3,0-.5,0-.6.2-.1.1-.2.3-.2.6s0,.5.2.6c.1.1.3.2.6.2h.4v2c0,.6,0,1,.3,1.4.2.4.5.7.9.9.4.2.9.3,1.5.3s.3,0,.5,0c.2,0,.4,0,.5-.1.2,0,.3-.2.4-.4,0-.2.1-.4.1-.6s0-.5-.1-.6c0,0-.2-.1-.3-.1Z"/>
    <path class="st1" d="M143.9,56.6c-.4,0-.7,0-.9.3-.2.2-.3.4-.3.8s.1.6.3.8c.2.2.5.3.9.3s.7,0,.9-.3c.2-.2.3-.4.3-.8s-.1-.6-.3-.8c-.2-.2-.5-.3-.9-.3Z"/>
    <path class="st1" d="M143.9,59.6c-.3,0-.6.1-.8.3-.2.2-.3.5-.3.9v3.9c0,.4,0,.7.3.9s.5.3.8.3.6-.1.8-.3.3-.5.3-.9v-3.9c0-.4,0-.7-.3-.9-.2-.2-.5-.3-.8-.3Z"/>
    <path class="st1" d="M154.9,59.8c-.3-.2-.7-.3-1.2-.3s-.9.1-1.3.3c-.3.2-.6.5-.7.8-.1-.4-.3-.6-.6-.8-.3-.2-.7-.3-1.1-.3s-.9.1-1.2.3c-.3.2-.5.4-.6.7,0-.3,0-.5-.3-.7-.2-.2-.4-.3-.8-.3s-.6,0-.8.3c-.2.2-.3.5-.3.8v4.1c0,.4,0,.6.3.8.2.2.5.3.8.3.7,0,1.1-.4,1.1-1.1v-2.3c0-.4,0-.7.2-.9.2-.2.4-.3.7-.3s.4,0,.5.2c.1.2.2.4.2.8v2.5c0,.4,0,.6.3.8.2.2.5.3.8.3s.6,0,.8-.3.3-.5.3-.8v-2.3c0-.4,0-.7.2-.9s.4-.3.7-.3.4,0,.5.2c.1.2.2.4.2.8v2.5c0,.4,0,.6.3.8.2.2.5.3.8.3s.6,0,.8-.3c.2-.2.3-.5.3-.8v-2.6c0-.6,0-1.1-.2-1.5s-.4-.7-.7-.9Z"/>
    <path class="st1" d="M161.8,60.4c-.3-.3-.6-.5-.9-.6-.4-.1-.8-.2-1.2-.2s-1.2.1-1.6.4c-.5.3-.9.6-1.1,1.1-.3.5-.4,1-.4,1.6s.1,1.2.4,1.7c.3.5.7.8,1.2,1.1s1.2.4,1.9.4.7,0,1,0,.6-.2.9-.3c.2,0,.3-.2.4-.3,0-.2.1-.3.1-.5,0-.2,0-.3-.1-.4s-.2-.2-.4-.3c-.2,0-.3,0-.6,0s-.4.1-.7.2c-.2,0-.4,0-.6,0-.5,0-.9-.1-1.2-.4-.2-.2-.3-.4-.3-.7h3.5c.2,0,.3,0,.4-.1s.1-.2.1-.4c0-.5,0-.9-.2-1.3s-.3-.7-.6-1ZM159.1,61.1c.2-.1.4-.2.7-.2s.4,0,.6.1c.2,0,.3.2.4.4,0,.2,0,.4.1.6h-2.3c0-.2,0-.3.1-.5,0-.2.2-.4.4-.5Z"/>
    <path class="st1" d="M164.3,63.4c-.4,0-.7.1-.9.3s-.3.5-.3.9.1.7.3.9c.2.2.5.3.9.3s.7-.1.9-.3c.2-.2.3-.5.3-.9s-.1-.6-.3-.9-.5-.3-.9-.3Z"/>
    <path class="st1" d="M174.8,57.9c-.2-.3-.3-.6-.5-.7s-.5-.2-.7-.2-.5,0-.7.2c-.2.1-.4.4-.5.7l-3.1,6.6c-.1.3-.2.5-.1.7,0,.2.1.4.3.5s.4.2.6.2.6,0,.7-.2c.2-.1.3-.4.5-.7l.4-.9h3.9l.4.9c.1.3.3.6.5.7s.4.2.8.2.5,0,.6-.2c.2-.1.3-.3.3-.5s0-.5-.1-.7l-3.1-6.6ZM173.5,59.4h0l1.2,2.8h-2.4l1.2-2.8Z"/>
    <path class="st1" d="M180.8,61.6c.1-.1.3-.2.4-.3.2,0,.4,0,.6,0s.3,0,.4,0c.1,0,.3,0,.4.1.2,0,.4.1.5,0s.3-.1.4-.3c0-.1.1-.3.1-.5,0-.2,0-.3,0-.5,0-.2-.2-.3-.4-.3-.3-.1-.5-.2-.8-.3s-.5,0-.7,0c-.5,0-1,0-1.4.2-.4.1-.8.3-1.1.6-.3.3-.5.6-.7,1-.2.4-.2.8-.2,1.3s.1,1.2.4,1.7c.3.5.7.8,1.2,1.1.5.3,1.1.4,1.8.4s.5,0,.7,0,.5-.1.8-.3c.2,0,.3-.2.4-.3,0-.2.1-.3.1-.5,0-.2,0-.3-.1-.5,0-.1-.2-.2-.4-.3-.1,0-.3,0-.5,0-.1,0-.3.1-.4.1-.1,0-.3,0-.4,0-.4,0-.8-.1-1-.4-.2-.3-.4-.6-.4-1.1s0-.5,0-.6c0-.2.1-.3.3-.5Z"/>
    <path class="st1" d="M189.4,59.8c-.3-.2-.7-.3-1.2-.3s-.9.1-1.2.3c-.3.1-.5.4-.6.6v-2.4c0-.4,0-.6-.3-.8s-.5-.3-.8-.3-.6,0-.8.3-.3.5-.3.8v6.7c0,.4,0,.6.3.8.2.2.5.3.8.3.7,0,1.1-.4,1.1-1.1v-2.4c0-.4,0-.6.3-.8.2-.2.5-.3.8-.3s.4,0,.6.2c.1.2.2.4.2.8v2.5c0,.4,0,.6.3.8.2.2.5.3.8.3s.6,0,.8-.3c.2-.2.3-.5.3-.8v-2.6c0-.6,0-1.1-.2-1.5s-.4-.7-.7-.9Z"/>
    <path class="st1" d="M192.3,56.6c-.4,0-.7,0-.9.3-.2.2-.3.4-.3.8s.1.6.3.8c.2.2.5.3.9.3s.7,0,.9-.3c.2-.2.3-.4.3-.8s-.1-.6-.3-.8c-.2-.2-.5-.3-.9-.3Z"/>
    <path class="st1" d="M192.3,59.6c-.3,0-.6.1-.8.3-.2.2-.3.5-.3.9v3.9c0,.4,0,.7.3.9s.5.3.8.3.6-.1.8-.3.3-.5.3-.9v-3.9c0-.4,0-.7-.3-.9-.2-.2-.5-.3-.8-.3Z"/>
    <path class="st1" d="M199.5,60.4c-.3-.3-.6-.5-.9-.6-.4-.1-.8-.2-1.2-.2s-1.2.1-1.6.4c-.5.3-.9.6-1.1,1.1-.3.5-.4,1-.4,1.6s.1,1.2.4,1.7c.3.5.7.8,1.2,1.1s1.2.4,1.9.4.7,0,1,0,.6-.2.9-.3c.2,0,.3-.2.4-.3,0-.2.1-.3.1-.5,0-.2,0-.3-.1-.4s-.2-.2-.4-.3c-.2,0-.3,0-.6,0s-.4.1-.7.2c-.2,0-.4,0-.6,0-.5,0-.9-.1-1.2-.4-.2-.2-.3-.4-.3-.7h3.5c.2,0,.3,0,.4-.1s.1-.2.1-.4c0-.5,0-.9-.2-1.3s-.3-.7-.6-1ZM196.7,61.1c.2-.1.4-.2.7-.2s.4,0,.6.1c.2,0,.3.2.4.4,0,.2,0,.4.1.6h-2.3c0-.2,0-.3.1-.5,0-.2.2-.4.4-.5Z"/>
    <path class="st1" d="M205.7,59.6c-.3,0-.5,0-.7.2-.2.1-.3.3-.4.7l-1.1,2.7-1-2.7c-.1-.3-.3-.6-.4-.7-.2-.1-.4-.2-.6-.2s-.6,0-.7.2c-.2.1-.3.3-.3.5,0,.2,0,.4,0,.7l1.8,4c.1.3.3.5.5.6.2.1.4.2.7.2s.5,0,.7-.2c.2-.1.4-.4.5-.6l1.8-4c.1-.2.2-.5.1-.7,0-.2-.1-.4-.3-.5s-.3-.2-.6-.2Z"/>
    <path class="st1" d="M212,60.4c-.3-.3-.6-.5-.9-.6-.4-.1-.8-.2-1.2-.2s-1.2.1-1.6.4c-.5.3-.9.6-1.1,1.1-.3.5-.4,1-.4,1.6s.1,1.2.4,1.7c.3.5.7.8,1.2,1.1s1.2.4,1.9.4.7,0,1,0,.6-.2.9-.3c.2,0,.3-.2.4-.3,0-.2.1-.3.1-.5,0-.2,0-.3-.1-.4s-.2-.2-.4-.3c-.2,0-.3,0-.6,0s-.4.1-.7.2c-.2,0-.4,0-.6,0-.5,0-.9-.1-1.2-.4-.2-.2-.3-.4-.3-.7h3.5c.2,0,.3,0,.4-.1s.1-.2.1-.4c0-.5,0-.9-.2-1.3s-.3-.7-.6-1ZM209.3,61.1c.2-.1.4-.2.7-.2s.4,0,.6.1c.2,0,.3.2.4.4,0,.2,0,.4.1.6h-2.3c0-.2,0-.3.1-.5,0-.2.2-.4.4-.5Z"/>
    <path class="st1" d="M221.6,59.6c-.3,0-.5,0-.7.2-.2.1-.3.3-.4.7l-1.1,2.7-1-2.7c-.1-.3-.3-.6-.4-.7-.2-.1-.4-.2-.6-.2s-.6,0-.7.2-.3.3-.3.5,0,.4.1.7l1.9,4.3-.6,1.4c-.1.2-.1.5-.1.7,0,.2.1.4.3.5.2.1.4.2.6.2s.5,0,.7-.2c.2-.1.3-.3.5-.7l2.8-6.3c.1-.2.1-.5.1-.7,0-.2-.1-.4-.3-.5s-.3-.2-.6-.2Z"/>
    <path class="st1" d="M227.7,59.9c-.5-.3-1.1-.4-1.8-.4s-1,0-1.4.2c-.4.1-.8.4-1.1.6s-.5.6-.7,1c-.2.4-.2.8-.2,1.3s.1,1.2.4,1.7.7.8,1.2,1.1c.5.3,1.1.4,1.8.4s1,0,1.4-.2c.4-.1.8-.4,1.1-.6.3-.3.5-.6.7-1,.2-.4.2-.8.2-1.3s-.1-1.2-.4-1.7c-.3-.5-.7-.8-1.2-1.1ZM226.9,63.6c0,.2-.2.4-.4.5s-.4.2-.6.2c-.3,0-.6-.1-.8-.4-.2-.2-.3-.6-.3-1.2s0-.7.1-.9c0-.2.2-.4.4-.5s.4-.2.6-.2c.3,0,.6.1.8.4.2.2.3.6.3,1.2s0,.7-.1.9Z"/>
    <path class="st1" d="M235,59.6c-.4,0-.6,0-.8.3-.2.2-.3.5-.3.8v2.4c0,.4,0,.6-.3.8-.2.2-.4.3-.7.3s-.5,0-.6-.2c-.1-.1-.2-.4-.2-.7v-2.6c0-.4,0-.6-.3-.8-.2-.2-.5-.3-.8-.3s-.6,0-.8.3c-.2.2-.3.5-.3.8v2.6c0,.6,0,1.1.3,1.5.2.4.4.7.8.9.3.2.8.3,1.3.3s.8-.1,1.1-.3c.2-.2.4-.4.6-.6,0,.3.1.5.3.7.2.2.5.3.8.3.7,0,1.1-.4,1.1-1.1v-4.1c0-.4,0-.6-.3-.8-.2-.2-.5-.3-.8-.3Z"/>
    <path class="st1" d="M240.9,59.5c-.5,0-.9.2-1.3.5-.2.2-.4.5-.5.8h0c0-.5,0-.8-.3-.9-.2-.2-.4-.3-.8-.3s-.6,0-.8.3c-.2.2-.3.5-.3.8v4.1c0,.4,0,.6.3.8.2.2.5.3.8.3s.6,0,.8-.3c.2-.2.3-.5.3-.8v-2c0-.4,0-.7.3-.9s.5-.3.9-.4h.3c.3,0,.6-.2.7-.3.1-.2.2-.4.2-.7,0-.3,0-.6-.2-.7-.1-.1-.3-.2-.5-.2Z"/>
    <path class="st1" d="M250.6,59.6c-.3,0-.6,0-.8.3-.2.2-.2.4-.3.7-.1-.3-.3-.5-.6-.7-.4-.2-.8-.3-1.2-.3s-.8,0-1.1.2c-.3.1-.6.3-.8.6-.2.3-.4.6-.5.9s-.2.8-.2,1.2.1,1.1.3,1.6c.2.5.5.8.9,1,.4.2.9.4,1.4.4s.9-.1,1.2-.3c.3-.2.5-.4.7-.7v.6c0,.4-.1.8-.4,1-.2.2-.6.3-1.1.3s-.5,0-.7,0c-.3,0-.6-.1-1-.3-.2,0-.3,0-.5,0s-.3.2-.3.3c0,.1-.1.3-.1.5s0,.3.1.5c0,.2.3.3.5.4.3.1.6.2,1,.3s.8,0,1.3,0c1.1,0,1.9-.3,2.5-.8.6-.5.9-1.3.9-2.4v-4.2c0-.4,0-.6-.3-.8-.2-.2-.4-.3-.8-.3ZM249.4,63.3c0,.2-.2.4-.4.5s-.4.2-.6.2c-.4,0-.6-.1-.8-.4-.2-.2-.3-.6-.3-1s0-.5.1-.8c0-.2.2-.4.4-.5.2-.1.4-.2.6-.2.4,0,.6.1.9.4s.3.6.3,1,0,.5-.1.8Z"/>
    <path class="st1" d="M257.4,59.9c-.5-.3-1.1-.4-1.8-.4s-1,0-1.4.2c-.4.1-.8.4-1.1.6s-.5.6-.7,1c-.2.4-.2.8-.2,1.3s.1,1.2.4,1.7.7.8,1.2,1.1c.5.3,1.1.4,1.8.4s1,0,1.4-.2c.4-.1.8-.4,1.1-.6.3-.3.5-.6.7-1,.2-.4.2-.8.2-1.3s-.1-1.2-.4-1.7c-.3-.5-.7-.8-1.2-1.1ZM256.7,63.6c0,.2-.2.4-.4.5s-.4.2-.6.2c-.3,0-.6-.1-.8-.4-.2-.2-.3-.6-.3-1.2s0-.7.1-.9c0-.2.2-.4.4-.5s.4-.2.6-.2c.3,0,.6.1.8.4.2.2.3.6.3,1.2s0,.7-.1.9Z"/>
    <path class="st1" d="M264.1,59.8c-.4-.2-1-.3-1.7-.3s-.6,0-.9,0c-.3,0-.7.1-1.1.3-.2,0-.4.2-.5.3s-.2.3-.2.5c0,.2,0,.3.1.5,0,.1.2.2.4.3.2,0,.3,0,.6,0,.3-.1.6-.2.8-.2.2,0,.5,0,.7,0,.4,0,.6,0,.8.2.2.1.2.3.2.6v.2h-.5c-.8,0-1.5,0-2,.2-.5.1-.9.3-1.1.5-.2.3-.3.6-.3,1s.1.7.3,1,.5.5.8.7c.4.2.8.3,1.2.3s.6,0,.8-.2.4-.3.6-.4c.1-.1.2-.3.2-.5,0,.3,0,.6.3.7.2.2.4.3.8.3s.6,0,.7-.3c.2-.2.3-.5.3-.8v-2.5c0-.6-.1-1.1-.3-1.5-.2-.4-.5-.7-1-.9ZM263.2,63.9c0,.2-.2.3-.4.4-.2,0-.3.1-.5.1s-.4,0-.6-.2c-.1-.1-.2-.3-.2-.5s0-.3.1-.4c0,0,.3-.2.5-.2.2,0,.5,0,.8,0h.5v.2c0,.2,0,.4-.1.6Z"/>
    <path class="st1" d="M269.6,64.1c0,0-.1,0-.2,0,0,0-.1,0-.2,0-.2,0-.3,0-.5-.2-.1-.1-.2-.4-.2-.7v-5.2c0-.4,0-.6-.3-.8s-.5-.3-.8-.3-.6,0-.8.3-.3.5-.3.8v5.3c0,.9.2,1.5.6,1.9.4.4,1,.6,1.7.6s.2,0,.3,0c.1,0,.2,0,.3,0,.2,0,.4-.1.5-.3s.2-.4.2-.6,0-.5-.1-.7-.2-.2-.3-.2Z"/>
    <path class="st1" d="M273.8,62.1l-1.4-.2c-.2,0-.3,0-.3-.1,0,0-.1-.2-.1-.3s0-.3.2-.3c.1,0,.4-.1.7-.1s.4,0,.6,0c.2,0,.4.1.7.2.2,0,.4,0,.5,0s.3-.1.3-.3.1-.3.2-.4c0-.2,0-.3,0-.4,0-.1-.2-.2-.4-.3-.3-.1-.6-.2-.9-.3-.3,0-.6,0-1,0-.5,0-1,0-1.5.3s-.8.4-1,.7-.4.7-.4,1.1.1.8.4,1.1c.3.3.7.5,1.2.6l1.4.2c.2,0,.3,0,.4.1s.1.2.1.3,0,.3-.2.3-.3.1-.7.1-.5,0-.8,0c-.3,0-.6-.1-.9-.3-.2,0-.3,0-.5,0-.1,0-.3.1-.3.3s-.1.3-.1.4c0,.2,0,.3.1.4,0,.1.2.2.4.3.3.1.6.2,1,.3.4,0,.7,0,1.1,0,.8,0,1.5-.2,2-.5.5-.4.8-.9.8-1.5s-.1-.8-.4-1.1c-.3-.3-.7-.5-1.2-.5Z"/>
    <path class="st1" d="M277.9,63.7c-.2-.2-.5-.3-.9-.3s-.7.1-.9.3-.3.5-.3.9.1.7.3.9c.2.2.5.3.9.3s.7-.1.9-.3c.2-.2.3-.5.3-.9s-.1-.6-.3-.9Z"/>
  </g>
</svg>